<?xml version="1.0" standalone="no"?>
<svg xmlns="http://www.w3.org/2000/svg" width="500" height="500"><defs><clipPath id="clip-path-dot-color"><circle cx="26" cy="138" r="7" transform="rotate(0,26,138)"/><path d="M 19 243v 14h 7a 7 7, 0, 0, 0, 0 -14" transform="rotate(-90,26,250)"/><rect x="19" y="257" width="14" height="14" transform="rotate(0,26,264)"/><rect x="19" y="271" width="14" height="14" transform="rotate(0,26,278)"/><path d="M 19 285v 14h 7a 7 7, 0, 0, 0, 0 -14" transform="rotate(90,26,292)"/><path d="M 19 327v 14h 14v -7a 7 7, 0, 0, 0, -7 -7" transform="rotate(-90,26,334)"/><path d="M 19 341v 14h 14v -7a 7 7, 0, 0, 0, -7 -7" transform="rotate(180,26,348)"/><path d="M 33 159v 14h 7a 7 7, 0, 0, 0, 0 -14" transform="rotate(180,40,166)"/><circle cx="40" cy="208" r="7" transform="rotate(0,40,208)"/><rect x="33" y="271" width="14" height="14" transform="rotate(0,40,278)"/><path d="M 33 313v 14h 7a 7 7, 0, 0, 0, 0 -14" transform="rotate(-90,40,320)"/><rect x="33" y="327" width="14" height="14" transform="rotate(0,40,334)"/><rect x="33" y="341" width="14" height="14" transform="rotate(0,40,348)"/><path d="M 33 355v 14h 14v -7a 7 7, 0, 0, 0, -7 -7" transform="rotate(180,40,362)"/><path d="M 47 131v 14h 7a 7 7, 0, 0, 0, 0 -14" transform="rotate(180,54,138)"/><path d="M 47 159v 14h 14v -7a 7 7, 0, 0, 0, -7 -7" transform="rotate(0,54,166)"/><path d="M 47 173v 14h 7a 7 7, 0, 0, 0, 0 -14" transform="rotate(90,54,180)"/><path d="M 47 215v 14h 7a 7 7, 0, 0, 0, 0 -14" transform="rotate(-90,54,222)"/><path d="M 47 229v 14h 7a 7 7, 0, 0, 0, 0 -14" transform="rotate(90,54,236)"/><rect x="47" y="271" width="14" height="14" transform="rotate(0,54,278)"/><path d="M 47 299v 14h 7a 7 7, 0, 0, 0, 0 -14" transform="rotate(180,54,306)"/><path d="M 47 355v 14h 7a 7 7, 0, 0, 0, 0 -14" transform="rotate(0,54,362)"/><path d="M 61 131v 14h 7a 7 7, 0, 0, 0, 0 -14" transform="rotate(0,68,138)"/><path d="M 61 187v 14h 14v -7a 7 7, 0, 0, 0, -7 -7" transform="rotate(-90,68,194)"/><path d="M 61 201v 14h 14v -7a 7 7, 0, 0, 0, -7 -7" transform="rotate(180,68,208)"/><path d="M 61 257v 14h 14v -7a 7 7, 0, 0, 0, -7 -7" transform="rotate(-90,68,264)"/><rect x="61" y="271" width="14" height="14" transform="rotate(0,68,278)"/><rect x="61" y="285" width="14" height="14" transform="rotate(0,68,292)"/><rect x="61" y="299" width="14" height="14" transform="rotate(0,68,306)"/><path d="M 61 327v 14h 7a 7 7, 0, 0, 0, 0 -14" transform="rotate(-90,68,334)"/><path d="M 61 341v 14h 14v -7a 7 7, 0, 0, 0, -7 -7" transform="rotate(180,68,348)"/><path d="M 75 145v 14h 7a 7 7, 0, 0, 0, 0 -14" transform="rotate(180,82,152)"/><rect x="75" y="187" width="14" height="14" transform="rotate(0,82,194)"/><path d="M 75 201v 14h 14v -7a 7 7, 0, 0, 0, -7 -7" transform="rotate(90,82,208)"/><circle cx="82" cy="236" r="7" transform="rotate(0,82,236)"/><path d="M 75 257v 14h 14v -7a 7 7, 0, 0, 0, -7 -7" transform="rotate(0,82,264)"/><rect x="75" y="271" width="14" height="14" transform="rotate(0,82,278)"/><rect x="75" y="285" width="14" height="14" transform="rotate(0,82,292)"/><path d="M 75 299v 14h 14v -7a 7 7, 0, 0, 0, -7 -7" transform="rotate(90,82,306)"/><path d="M 75 341v 14h 7a 7 7, 0, 0, 0, 0 -14" transform="rotate(0,82,348)"/><path d="M 89 131v 14h 14v -7a 7 7, 0, 0, 0, -7 -7" transform="rotate(-90,96,138)"/><rect x="89" y="145" width="14" height="14" transform="rotate(0,96,152)"/><path d="M 89 159v 14h 14v -7a 7 7, 0, 0, 0, -7 -7" transform="rotate(180,96,166)"/><rect x="89" y="187" width="14" height="14" transform="rotate(0,96,194)"/><path d="M 89 243v 14h 7a 7 7, 0, 0, 0, 0 -14" transform="rotate(180,96,250)"/><path d="M 89 285v 14h 7a 7 7, 0, 0, 0, 0 -14" transform="rotate(0,96,292)"/><rect x="103" y="131" width="14" height="14" transform="rotate(0,110,138)"/><rect x="103" y="159" width="14" height="14" transform="rotate(0,110,166)"/><path d="M 103 187v 14h 7a 7 7, 0, 0, 0, 0 -14" transform="rotate(0,110,194)"/><circle cx="110" cy="222" r="7" transform="rotate(0,110,222)"/><path d="M 103 243v 14h 7a 7 7, 0, 0, 0, 0 -14" transform="rotate(0,110,250)"/><path d="M 103 271v 14h 7a 7 7, 0, 0, 0, 0 -14" transform="rotate(180,110,278)"/><circle cx="110" cy="306" r="7" transform="rotate(0,110,306)"/><circle cx="110" cy="334" r="7" transform="rotate(0,110,334)"/><path d="M 103 355v 14h 7a 7 7, 0, 0, 0, 0 -14" transform="rotate(180,110,362)"/><rect x="117" y="131" width="14" height="14" transform="rotate(0,124,138)"/><rect x="117" y="159" width="14" height="14" transform="rotate(0,124,166)"/><path d="M 117 173v 14h 14v -7a 7 7, 0, 0, 0, -7 -7" transform="rotate(180,124,180)"/><path d="M 117 257v 14h 7a 7 7, 0, 0, 0, 0 -14" transform="rotate(-90,124,264)"/><path d="M 117 271v 14h 14v -7a 7 7, 0, 0, 0, -7 -7" transform="rotate(90,124,278)"/><path d="M 117 313v 14h 7a 7 7, 0, 0, 0, 0 -14" transform="rotate(180,124,320)"/><path d="M 117 355v 14h 7a 7 7, 0, 0, 0, 0 -14" transform="rotate(0,124,362)"/><circle cx="138" cy="40" r="7" transform="rotate(0,138,40)"/><path d="M 131 61v 14h 7a 7 7, 0, 0, 0, 0 -14" transform="rotate(180,138,68)"/><path d="M 131 89v 14h 14v -7a 7 7, 0, 0, 0, -7 -7" transform="rotate(-90,138,96)"/><rect x="131" y="103" width="14" height="14" transform="rotate(0,138,110)"/><rect x="131" y="117" width="14" height="14" transform="rotate(0,138,124)"/><rect x="131" y="131" width="14" height="14" transform="rotate(0,138,138)"/><path d="M 131 159v 14h 14v -7a 7 7, 0, 0, 0, -7 -7" transform="rotate(0,138,166)"/><rect x="131" y="173" width="14" height="14" transform="rotate(0,138,180)"/><path d="M 131 187v 14h 14v -7a 7 7, 0, 0, 0, -7 -7" transform="rotate(180,138,194)"/><path d="M 131 243v 14h 7a 7 7, 0, 0, 0, 0 -14" transform="rotate(180,138,250)"/><rect x="131" y="313" width="14" height="14" transform="rotate(0,138,320)"/><path d="M 131 369v 14h 14v -7a 7 7, 0, 0, 0, -7 -7" transform="rotate(-90,138,376)"/><rect x="131" y="383" width="14" height="14" transform="rotate(0,138,390)"/><path d="M 131 397v 14h 14v -7a 7 7, 0, 0, 0, -7 -7" transform="rotate(180,138,404)"/><path d="M 131 425v 14h 7a 7 7, 0, 0, 0, 0 -14" transform="rotate(-90,138,432)"/><path d="M 131 439v 14h 7a 7 7, 0, 0, 0, 0 -14" transform="rotate(90,138,446)"/><path d="M 131 467v 14h 7a 7 7, 0, 0, 0, 0 -14" transform="rotate(180,138,474)"/><rect x="145" y="61" width="14" height="14" transform="rotate(0,152,68)"/><path d="M 145 89v 14h 7a 7 7, 0, 0, 0, 0 -14" transform="rotate(0,152,96)"/><rect x="145" y="117" width="14" height="14" transform="rotate(0,152,124)"/><rect x="145" y="131" width="14" height="14" transform="rotate(0,152,138)"/><path d="M 145 145v 14h 14v -7a 7 7, 0, 0, 0, -7 -7" transform="rotate(180,152,152)"/><rect x="145" y="187" width="14" height="14" transform="rotate(0,152,194)"/><path d="M 145 243v 14h 14v -7a 7 7, 0, 0, 0, -7 -7" transform="rotate(0,152,250)"/><path d="M 145 257v 14h 7a 7 7, 0, 0, 0, 0 -14" transform="rotate(90,152,264)"/><path d="M 145 299v 14h 14v -7a 7 7, 0, 0, 0, -7 -7" transform="rotate(-90,152,306)"/><rect x="145" y="313" width="14" height="14" transform="rotate(0,152,320)"/><path d="M 145 355v 14h 14v -7a 7 7, 0, 0, 0, -7 -7" transform="rotate(-90,152,362)"/><rect x="145" y="369" width="14" height="14" transform="rotate(0,152,376)"/><rect x="145" y="383" width="14" height="14" transform="rotate(0,152,390)"/><rect x="145" y="397" width="14" height="14" transform="rotate(0,152,404)"/><path d="M 145 453v 14h 7a 7 7, 0, 0, 0, 0 -14" transform="rotate(-90,152,460)"/><rect x="145" y="467" width="14" height="14" transform="rotate(0,152,474)"/><path d="M 159 19v 14h 7a 7 7, 0, 0, 0, 0 -14" transform="rotate(180,166,26)"/><rect x="159" y="61" width="14" height="14" transform="rotate(0,166,68)"/><path d="M 159 75v 14h 14v -7a 7 7, 0, 0, 0, -7 -7" transform="rotate(180,166,82)"/><path d="M 159 103v 14h 7a 7 7, 0, 0, 0, 0 -14" transform="rotate(-90,166,110)"/><rect x="159" y="117" width="14" height="14" transform="rotate(0,166,124)"/><path d="M 159 145v 14h 14v -7a 7 7, 0, 0, 0, -7 -7" transform="rotate(0,166,152)"/><path d="M 159 159v 14h 7a 7 7, 0, 0, 0, 0 -14" transform="rotate(90,166,166)"/><rect x="159" y="187" width="14" height="14" transform="rotate(0,166,194)"/><rect x="159" y="201" width="14" height="14" transform="rotate(0,166,208)"/><path d="M 159 215v 14h 7a 7 7, 0, 0, 0, 0 -14" transform="rotate(90,166,222)"/><path d="M 159 271v 14h 14v -7a 7 7, 0, 0, 0, -7 -7" transform="rotate(-90,166,278)"/><rect x="159" y="285" width="14" height="14" transform="rotate(0,166,292)"/><rect x="159" y="299" width="14" height="14" transform="rotate(0,166,306)"/><rect x="159" y="313" width="14" height="14" transform="rotate(0,166,320)"/><rect x="159" y="355" width="14" height="14" transform="rotate(0,166,362)"/><rect x="159" y="369" width="14" height="14" transform="rotate(0,166,376)"/><rect x="159" y="383" width="14" height="14" transform="rotate(0,166,390)"/><rect x="159" y="397" width="14" height="14" transform="rotate(0,166,404)"/><path d="M 159 411v 14h 14v -7a 7 7, 0, 0, 0, -7 -7" transform="rotate(180,166,418)"/><circle cx="166" cy="446" r="7" transform="rotate(0,166,446)"/><rect x="159" y="467" width="14" height="14" transform="rotate(0,166,474)"/><path d="M 173 19v 14h 7a 7 7, 0, 0, 0, 0 -14" transform="rotate(0,180,26)"/><path d="M 173 47v 14h 7a 7 7, 0, 0, 0, 0 -14" transform="rotate(-90,180,54)"/><rect x="173" y="61" width="14" height="14" transform="rotate(0,180,68)"/><rect x="173" y="75" width="14" height="14" transform="rotate(0,180,82)"/><path d="M 173 89v 14h 7a 7 7, 0, 0, 0, 0 -14" transform="rotate(90,180,96)"/><path d="M 173 117v 14h 7a 7 7, 0, 0, 0, 0 -14" transform="rotate(0,180,124)"/><path d="M 173 187v 14h 14v -7a 7 7, 0, 0, 0, -7 -7" transform="rotate(0,180,194)"/><rect x="173" y="201" width="14" height="14" transform="rotate(0,180,208)"/><circle cx="180" cy="236" r="7" transform="rotate(0,180,236)"/><rect x="173" y="271" width="14" height="14" transform="rotate(0,180,278)"/><rect x="173" y="313" width="14" height="14" transform="rotate(0,180,320)"/><rect x="173" y="327" width="14" height="14" transform="rotate(0,180,334)"/><rect x="173" y="341" width="14" height="14" transform="rotate(0,180,348)"/><rect x="173" y="355" width="14" height="14" transform="rotate(0,180,362)"/><path d="M 173 411v 14h 14v -7a 7 7, 0, 0, 0, -7 -7" transform="rotate(0,180,418)"/><path d="M 173 425v 14h 14v -7a 7 7, 0, 0, 0, -7 -7" transform="rotate(180,180,432)"/><path d="M 173 453v 14h 14v -7a 7 7, 0, 0, 0, -7 -7" transform="rotate(-90,180,460)"/><rect x="173" y="467" width="14" height="14" transform="rotate(0,180,474)"/><path d="M 187 61v 14h 7a 7 7, 0, 0, 0, 0 -14" transform="rotate(0,194,68)"/><circle cx="194" cy="110" r="7" transform="rotate(0,194,110)"/><circle cx="194" cy="152" r="7" transform="rotate(0,194,152)"/><circle cx="194" cy="180" r="7" transform="rotate(0,194,180)"/><rect x="187" y="201" width="14" height="14" transform="rotate(0,194,208)"/><path d="M 187 243v 14h 7a 7 7, 0, 0, 0, 0 -14" transform="rotate(180,194,250)"/><rect x="187" y="271" width="14" height="14" transform="rotate(0,194,278)"/><path d="M 187 299v 14h 14v -7a 7 7, 0, 0, 0, -7 -7" transform="rotate(-90,194,306)"/><rect x="187" y="313" width="14" height="14" transform="rotate(0,194,320)"/><rect x="187" y="327" width="14" height="14" transform="rotate(0,194,334)"/><rect x="187" y="341" width="14" height="14" transform="rotate(0,194,348)"/><path d="M 187 355v 14h 14v -7a 7 7, 0, 0, 0, -7 -7" transform="rotate(90,194,362)"/><path d="M 187 383v 14h 14v -7a 7 7, 0, 0, 0, -7 -7" transform="rotate(-90,194,390)"/><path d="M 187 397v 14h 7a 7 7, 0, 0, 0, 0 -14" transform="rotate(90,194,404)"/><rect x="187" y="425" width="14" height="14" transform="rotate(0,194,432)"/><rect x="187" y="453" width="14" height="14" transform="rotate(0,194,460)"/><rect x="187" y="467" width="14" height="14" transform="rotate(0,194,474)"/><path d="M 201 19v 14h 7a 7 7, 0, 0, 0, 0 -14" transform="rotate(-90,208,26)"/><path d="M 201 33v 14h 14v -7a 7 7, 0, 0, 0, -7 -7" transform="rotate(180,208,40)"/><path d="M 201 75v 14h 14v -7a 7 7, 0, 0, 0, -7 -7" transform="rotate(-90,208,82)"/><path d="M 201 89v 14h 7a 7 7, 0, 0, 0, 0 -14" transform="rotate(90,208,96)"/><path d="M 201 187v 14h 14v -7a 7 7, 0, 0, 0, -7 -7" transform="rotate(-90,208,194)"/><rect x="201" y="201" width="14" height="14" transform="rotate(0,208,208)"/><rect x="201" y="215" width="14" height="14" transform="rotate(0,208,222)"/><rect x="201" y="229" width="14" height="14" transform="rotate(0,208,236)"/><rect x="201" y="243" width="14" height="14" transform="rotate(0,208,250)"/><path d="M 201 271v 14h 7a 7 7, 0, 0, 0, 0 -14" transform="rotate(0,208,278)"/><path d="M 201 299v 14h 7a 7 7, 0, 0, 0, 0 -14" transform="rotate(0,208,306)"/><rect x="201" y="327" width="14" height="14" transform="rotate(0,208,334)"/><rect x="201" y="383" width="14" height="14" transform="rotate(0,208,390)"/><path d="M 201 411v 14h 14v -7a 7 7, 0, 0, 0, -7 -7" transform="rotate(-90,208,418)"/><path d="M 201 425v 14h 14v -7a 7 7, 0, 0, 0, -7 -7" transform="rotate(90,208,432)"/><rect x="201" y="453" width="14" height="14" transform="rotate(0,208,460)"/><path d="M 201 467v 14h 14v -7a 7 7, 0, 0, 0, -7 -7" transform="rotate(90,208,474)"/><rect x="215" y="33" width="14" height="14" transform="rotate(0,222,40)"/><path d="M 215 47v 14h 7a 7 7, 0, 0, 0, 0 -14" transform="rotate(90,222,54)"/><rect x="215" y="75" width="14" height="14" transform="rotate(0,222,82)"/><path d="M 215 103v 14h 7a 7 7, 0, 0, 0, 0 -14" transform="rotate(-90,222,110)"/><rect x="215" y="117" width="14" height="14" transform="rotate(0,222,124)"/><rect x="215" y="131" width="14" height="14" transform="rotate(0,222,138)"/><path d="M 215 145v 14h 7a 7 7, 0, 0, 0, 0 -14" transform="rotate(90,222,152)"/><path d="M 215 187v 14h 7a 7 7, 0, 0, 0, 0 -14" transform="rotate(0,222,194)"/><path d="M 215 215v 14h 7a 7 7, 0, 0, 0, 0 -14" transform="rotate(0,222,222)"/><path d="M 215 243v 14h 7a 7 7, 0, 0, 0, 0 -14" transform="rotate(0,222,250)"/><circle cx="222" cy="292" r="7" transform="rotate(0,222,292)"/><path d="M 215 327v 14h 14v -7a 7 7, 0, 0, 0, -7 -7" transform="rotate(0,222,334)"/><path d="M 215 341v 14h 14v -7a 7 7, 0, 0, 0, -7 -7" transform="rotate(180,222,348)"/><path d="M 215 369v 14h 7a 7 7, 0, 0, 0, 0 -14" transform="rotate(-90,222,376)"/><rect x="215" y="383" width="14" height="14" transform="rotate(0,222,390)"/><path d="M 215 411v 14h 7a 7 7, 0, 0, 0, 0 -14" transform="rotate(0,222,418)"/><path d="M 215 439v 14h 7a 7 7, 0, 0, 0, 0 -14" transform="rotate(-90,222,446)"/><rect x="215" y="453" width="14" height="14" transform="rotate(0,222,460)"/><path d="M 229 19v 14h 14v -7a 7 7, 0, 0, 0, -7 -7" transform="rotate(-90,236,26)"/><rect x="229" y="33" width="14" height="14" transform="rotate(0,236,40)"/><path d="M 229 75v 14h 7a 7 7, 0, 0, 0, 0 -14" transform="rotate(0,236,82)"/><path d="M 229 117v 14h 7a 7 7, 0, 0, 0, 0 -14" transform="rotate(0,236,124)"/><path d="M 229 159v 14h 7a 7 7, 0, 0, 0, 0 -14" transform="rotate(180,236,166)"/><path d="M 229 229v 14h 7a 7 7, 0, 0, 0, 0 -14" transform="rotate(180,236,236)"/><circle cx="236" cy="264" r="7" transform="rotate(0,236,264)"/><path d="M 229 299v 14h 14v -7a 7 7, 0, 0, 0, -7 -7" transform="rotate(-90,236,306)"/><path d="M 229 313v 14h 14v -7a 7 7, 0, 0, 0, -7 -7" transform="rotate(180,236,320)"/><path d="M 229 341v 14h 14v -7a 7 7, 0, 0, 0, -7 -7" transform="rotate(0,236,348)"/><path d="M 229 355v 14h 14v -7a 7 7, 0, 0, 0, -7 -7" transform="rotate(180,236,362)"/><rect x="229" y="383" width="14" height="14" transform="rotate(0,236,390)"/><rect x="229" y="453" width="14" height="14" transform="rotate(0,236,460)"/><rect x="243" y="19" width="14" height="14" transform="rotate(0,250,26)"/><rect x="243" y="33" width="14" height="14" transform="rotate(0,250,40)"/><path d="M 243 47v 14h 14v -7a 7 7, 0, 0, 0, -7 -7" transform="rotate(180,250,54)"/><circle cx="250" cy="110" r="7" transform="rotate(0,250,110)"/><rect x="243" y="159" width="14" height="14" transform="rotate(0,250,166)"/><path d="M 243 201v 14h 7a 7 7, 0, 0, 0, 0 -14" transform="rotate(180,250,208)"/><path d="M 243 229v 14h 7a 7 7, 0, 0, 0, 0 -14" transform="rotate(0,250,236)"/><circle cx="250" cy="278" r="7" transform="rotate(0,250,278)"/><path d="M 243 299v 14h 14v -7a 7 7, 0, 0, 0, -7 -7" transform="rotate(0,250,306)"/><rect x="243" y="313" width="14" height="14" transform="rotate(0,250,320)"/><path d="M 243 327v 14h 7a 7 7, 0, 0, 0, 0 -14" transform="rotate(90,250,334)"/><path d="M 243 355v 14h 7a 7 7, 0, 0, 0, 0 -14" transform="rotate(0,250,362)"/><path d="M 243 383v 14h 7a 7 7, 0, 0, 0, 0 -14" transform="rotate(0,250,390)"/><circle cx="250" cy="418" r="7" transform="rotate(0,250,418)"/><path d="M 243 453v 14h 7a 7 7, 0, 0, 0, 0 -14" transform="rotate(0,250,460)"/><path d="M 257 19v 14h 14v -7a 7 7, 0, 0, 0, -7 -7" transform="rotate(0,264,26)"/><rect x="257" y="33" width="14" height="14" transform="rotate(0,264,40)"/><rect x="257" y="47" width="14" height="14" transform="rotate(0,264,54)"/><rect x="257" y="61" width="14" height="14" transform="rotate(0,264,68)"/><rect x="257" y="75" width="14" height="14" transform="rotate(0,264,82)"/><path d="M 257 89v 14h 14v -7a 7 7, 0, 0, 0, -7 -7" transform="rotate(180,264,96)"/><path d="M 257 117v 14h 14v -7a 7 7, 0, 0, 0, -7 -7" transform="rotate(-90,264,124)"/><path d="M 257 131v 14h 14v -7a 7 7, 0, 0, 0, -7 -7" transform="rotate(180,264,138)"/><path d="M 257 159v 14h 7a 7 7, 0, 0, 0, 0 -14" transform="rotate(0,264,166)"/><path d="M 257 187v 14h 7a 7 7, 0, 0, 0, 0 -14" transform="rotate(-90,264,194)"/><rect x="257" y="201" width="14" height="14" transform="rotate(0,264,208)"/><circle cx="264" cy="348" r="7" transform="rotate(0,264,348)"/><circle cx="264" cy="404" r="7" transform="rotate(0,264,404)"/><circle cx="264" cy="432" r="7" transform="rotate(0,264,432)"/><rect x="271" y="47" width="14" height="14" transform="rotate(0,278,54)"/><rect x="271" y="61" width="14" height="14" transform="rotate(0,278,68)"/><rect x="271" y="89" width="14" height="14" transform="rotate(0,278,96)"/><rect x="271" y="103" width="14" height="14" transform="rotate(0,278,110)"/><rect x="271" y="117" width="14" height="14" transform="rotate(0,278,124)"/><rect x="271" y="131" width="14" height="14" transform="rotate(0,278,138)"/><path d="M 271 145v 14h 14v -7a 7 7, 0, 0, 0, -7 -7" transform="rotate(180,278,152)"/><circle cx="278" cy="180" r="7" transform="rotate(0,278,180)"/><path d="M 271 201v 14h 7a 7 7, 0, 0, 0, 0 -14" transform="rotate(0,278,208)"/><path d="M 271 229v 14h 14v -7a 7 7, 0, 0, 0, -7 -7" transform="rotate(-90,278,236)"/><rect x="271" y="243" width="14" height="14" transform="rotate(0,278,250)"/><rect x="271" y="257" width="14" height="14" transform="rotate(0,278,264)"/><path d="M 271 271v 14h 7a 7 7, 0, 0, 0, 0 -14" transform="rotate(90,278,278)"/><path d="M 271 313v 14h 7a 7 7, 0, 0, 0, 0 -14" transform="rotate(180,278,320)"/><circle cx="278" cy="376" r="7" transform="rotate(0,278,376)"/><path d="M 271 439v 14h 7a 7 7, 0, 0, 0, 0 -14" transform="rotate(-90,278,446)"/><rect x="271" y="453" width="14" height="14" transform="rotate(0,278,460)"/><path d="M 271 467v 14h 7a 7 7, 0, 0, 0, 0 -14" transform="rotate(90,278,474)"/><path d="M 285 47v 14h 14v -7a 7 7, 0, 0, 0, -7 -7" transform="rotate(0,292,54)"/><rect x="285" y="61" width="14" height="14" transform="rotate(0,292,68)"/><rect x="285" y="89" width="14" height="14" transform="rotate(0,292,96)"/><rect x="285" y="131" width="14" height="14" transform="rotate(0,292,138)"/><rect x="285" y="145" width="14" height="14" transform="rotate(0,292,152)"/><path d="M 285 159v 14h 7a 7 7, 0, 0, 0, 0 -14" transform="rotate(90,292,166)"/><path d="M 285 215v 14h 7a 7 7, 0, 0, 0, 0 -14" transform="rotate(-90,292,222)"/><rect x="285" y="229" width="14" height="14" transform="rotate(0,292,236)"/><rect x="285" y="257" width="14" height="14" transform="rotate(0,292,264)"/><path d="M 285 285v 14h 14v -7a 7 7, 0, 0, 0, -7 -7" transform="rotate(-90,292,292)"/><rect x="285" y="299" width="14" height="14" transform="rotate(0,292,306)"/><rect x="285" y="313" width="14" height="14" transform="rotate(0,292,320)"/><path d="M 285 327v 14h 7a 7 7, 0, 0, 0, 0 -14" transform="rotate(90,292,334)"/><circle cx="292" cy="362" r="7" transform="rotate(0,292,362)"/><path d="M 285 383v 14h 7a 7 7, 0, 0, 0, 0 -14" transform="rotate(-90,292,390)"/><path d="M 285 397v 14h 14v -7a 7 7, 0, 0, 0, -7 -7" transform="rotate(180,292,404)"/><path d="M 285 453v 14h 7a 7 7, 0, 0, 0, 0 -14" transform="rotate(0,292,460)"/><circle cx="306" cy="40" r="7" transform="rotate(0,306,40)"/><rect x="299" y="61" width="14" height="14" transform="rotate(0,306,68)"/><rect x="299" y="75" width="14" height="14" transform="rotate(0,306,82)"/><rect x="299" y="89" width="14" height="14" transform="rotate(0,306,96)"/><rect x="299" y="103" width="14" height="14" transform="rotate(0,306,110)"/><rect x="299" y="117" width="14" height="14" transform="rotate(0,306,124)"/><rect x="299" y="131" width="14" height="14" transform="rotate(0,306,138)"/><circle cx="306" cy="180" r="7" transform="rotate(0,306,180)"/><circle cx="306" cy="208" r="7" transform="rotate(0,306,208)"/><path d="M 299 229v 14h 7a 7 7, 0, 0, 0, 0 -14" transform="rotate(0,306,236)"/><path d="M 299 257v 14h 7a 7 7, 0, 0, 0, 0 -14" transform="rotate(0,306,264)"/><rect x="299" y="285" width="14" height="14" transform="rotate(0,306,292)"/><path d="M 299 313v 14h 7a 7 7, 0, 0, 0, 0 -14" transform="rotate(0,306,320)"/><circle cx="306" cy="348" r="7" transform="rotate(0,306,348)"/><path d="M 299 369v 14h 7a 7 7, 0, 0, 0, 0 -14" transform="rotate(180,306,376)"/><path d="M 299 397v 14h 7a 7 7, 0, 0, 0, 0 -14" transform="rotate(0,306,404)"/><path d="M 299 467v 14h 7a 7 7, 0, 0, 0, 0 -14" transform="rotate(180,306,474)"/><rect x="313" y="61" width="14" height="14" transform="rotate(0,320,68)"/><path d="M 313 131v 14h 7a 7 7, 0, 0, 0, 0 -14" transform="rotate(0,320,138)"/><circle cx="320" cy="194" r="7" transform="rotate(0,320,194)"/><path d="M 313 215v 14h 7a 7 7, 0, 0, 0, 0 -14" transform="rotate(180,320,222)"/><circle cx="320" cy="250" r="7" transform="rotate(0,320,250)"/><rect x="313" y="285" width="14" height="14" transform="rotate(0,320,292)"/><path d="M 313 327v 14h 7a 7 7, 0, 0, 0, 0 -14" transform="rotate(180,320,334)"/><path d="M 313 355v 14h 7a 7 7, 0, 0, 0, 0 -14" transform="rotate(-90,320,362)"/><rect x="313" y="369" width="14" height="14" transform="rotate(0,320,376)"/><path d="M 313 383v 14h 14v -7a 7 7, 0, 0, 0, -7 -7" transform="rotate(180,320,390)"/><path d="M 313 439v 14h 14v -7a 7 7, 0, 0, 0, -7 -7" transform="rotate(-90,320,446)"/><rect x="313" y="453" width="14" height="14" transform="rotate(0,320,460)"/><rect x="313" y="467" width="14" height="14" transform="rotate(0,320,474)"/><path d="M 327 19v 14h 7a 7 7, 0, 0, 0, 0 -14" transform="rotate(-90,334,26)"/><rect x="327" y="33" width="14" height="14" transform="rotate(0,334,40)"/><rect x="327" y="47" width="14" height="14" transform="rotate(0,334,54)"/><rect x="327" y="61" width="14" height="14" transform="rotate(0,334,68)"/><path d="M 327 75v 14h 14v -7a 7 7, 0, 0, 0, -7 -7" transform="rotate(180,334,82)"/><circle cx="334" cy="110" r="7" transform="rotate(0,334,110)"/><path d="M 327 145v 14h 7a 7 7, 0, 0, 0, 0 -14" transform="rotate(180,334,152)"/><path d="M 327 215v 14h 14v -7a 7 7, 0, 0, 0, -7 -7" transform="rotate(0,334,222)"/><path d="M 327 229v 14h 7a 7 7, 0, 0, 0, 0 -14" transform="rotate(90,334,236)"/><path d="M 327 285v 14h 7a 7 7, 0, 0, 0, 0 -14" transform="rotate(0,334,292)"/><path d="M 327 313v 14h 14v -7a 7 7, 0, 0, 0, -7 -7" transform="rotate(-90,334,320)"/><rect x="327" y="327" width="14" height="14" transform="rotate(0,334,334)"/><path d="M 327 383v 14h 7a 7 7, 0, 0, 0, 0 -14" transform="rotate(0,334,390)"/><circle cx="334" cy="418" r="7" transform="rotate(0,334,418)"/><path d="M 327 439v 14h 7a 7 7, 0, 0, 0, 0 -14" transform="rotate(0,334,446)"/><path d="M 327 467v 14h 7a 7 7, 0, 0, 0, 0 -14" transform="rotate(0,334,474)"/><path d="M 341 33v 14h 14v -7a 7 7, 0, 0, 0, -7 -7" transform="rotate(0,348,40)"/><rect x="341" y="47" width="14" height="14" transform="rotate(0,348,54)"/><path d="M 341 75v 14h 7a 7 7, 0, 0, 0, 0 -14" transform="rotate(0,348,82)"/><path d="M 341 131v 14h 14v -7a 7 7, 0, 0, 0, -7 -7" transform="rotate(-90,348,138)"/><rect x="341" y="145" width="14" height="14" transform="rotate(0,348,152)"/><rect x="341" y="159" width="14" height="14" transform="rotate(0,348,166)"/><rect x="341" y="173" width="14" height="14" transform="rotate(0,348,180)"/><path d="M 341 187v 14h 7a 7 7, 0, 0, 0, 0 -14" transform="rotate(90,348,194)"/><circle cx="348" cy="264" r="7" transform="rotate(0,348,264)"/><rect x="341" y="313" width="14" height="14" transform="rotate(0,348,320)"/><path d="M 341 327v 14h 14v -7a 7 7, 0, 0, 0, -7 -7" transform="rotate(90,348,334)"/><path d="M 341 355v 14h 7a 7 7, 0, 0, 0, 0 -14" transform="rotate(180,348,362)"/><path d="M 341 397v 14h 7a 7 7, 0, 0, 0, 0 -14" transform="rotate(180,348,404)"/><circle cx="348" cy="432" r="7" transform="rotate(0,348,432)"/><circle cx="348" cy="460" r="7" transform="rotate(0,348,460)"/><circle cx="362" cy="26" r="7" transform="rotate(0,362,26)"/><path d="M 355 47v 14h 14v -7a 7 7, 0, 0, 0, -7 -7" transform="rotate(0,362,54)"/><path d="M 355 61v 14h 7a 7 7, 0, 0, 0, 0 -14" transform="rotate(90,362,68)"/><path d="M 355 89v 14h 7a 7 7, 0, 0, 0, 0 -14" transform="rotate(-90,362,96)"/><path d="M 355 103v 14h 7a 7 7, 0, 0, 0, 0 -14" transform="rotate(90,362,110)"/><rect x="355" y="131" width="14" height="14" transform="rotate(0,362,138)"/><path d="M 355 201v 14h 7a 7 7, 0, 0, 0, 0 -14" transform="rotate(-90,362,208)"/><path d="M 355 215v 14h 7a 7 7, 0, 0, 0, 0 -14" transform="rotate(90,362,222)"/><path d="M 355 243v 14h 7a 7 7, 0, 0, 0, 0 -14" transform="rotate(180,362,250)"/><path d="M 355 285v 14h 14v -7a 7 7, 0, 0, 0, -7 -7" transform="rotate(-90,362,292)"/><rect x="355" y="299" width="14" height="14" transform="rotate(0,362,306)"/><rect x="355" y="313" width="14" height="14" transform="rotate(0,362,320)"/><path d="M 355 341v 14h 7a 7 7, 0, 0, 0, 0 -14" transform="rotate(-90,362,348)"/><rect x="355" y="355" width="14" height="14" transform="rotate(0,362,362)"/><rect x="355" y="369" width="14" height="14" transform="rotate(0,362,376)"/><rect x="355" y="383" width="14" height="14" transform="rotate(0,362,390)"/><rect x="355" y="397" width="14" height="14" transform="rotate(0,362,404)"/><path d="M 355 411v 14h 14v -7a 7 7, 0, 0, 0, -7 -7" transform="rotate(180,362,418)"/><rect x="369" y="131" width="14" height="14" transform="rotate(0,376,138)"/><rect x="369" y="145" width="14" height="14" transform="rotate(0,376,152)"/><path d="M 369 159v 14h 14v -7a 7 7, 0, 0, 0, -7 -7" transform="rotate(180,376,166)"/><path d="M 369 243v 14h 14v -7a 7 7, 0, 0, 0, -7 -7" transform="rotate(0,376,250)"/><path d="M 369 257v 14h 14v -7a 7 7, 0, 0, 0, -7 -7" transform="rotate(180,376,264)"/><path d="M 369 285v 14h 14v -7a 7 7, 0, 0, 0, -7 -7" transform="rotate(0,376,292)"/><rect x="369" y="299" width="14" height="14" transform="rotate(0,376,306)"/><rect x="369" y="313" width="14" height="14" transform="rotate(0,376,320)"/><path d="M 369 327v 14h 7a 7 7, 0, 0, 0, 0 -14" transform="rotate(90,376,334)"/><rect x="369" y="355" width="14" height="14" transform="rotate(0,376,362)"/><rect x="369" y="411" width="14" height="14" transform="rotate(0,376,418)"/><path d="M 369 425v 14h 14v -7a 7 7, 0, 0, 0, -7 -7" transform="rotate(180,376,432)"/><circle cx="376" cy="474" r="7" transform="rotate(0,376,474)"/><rect x="383" y="131" width="14" height="14" transform="rotate(0,390,138)"/><rect x="383" y="159" width="14" height="14" transform="rotate(0,390,166)"/><path d="M 383 187v 14h 14v -7a 7 7, 0, 0, 0, -7 -7" transform="rotate(-90,390,194)"/><rect x="383" y="201" width="14" height="14" transform="rotate(0,390,208)"/><path d="M 383 215v 14h 14v -7a 7 7, 0, 0, 0, -7 -7" transform="rotate(180,390,222)"/><rect x="383" y="257" width="14" height="14" transform="rotate(0,390,264)"/><rect x="383" y="355" width="14" height="14" transform="rotate(0,390,362)"/><circle cx="390" cy="390" r="7" transform="rotate(0,390,390)"/><rect x="383" y="411" width="14" height="14" transform="rotate(0,390,418)"/><rect x="383" y="425" width="14" height="14" transform="rotate(0,390,432)"/><rect x="383" y="439" width="14" height="14" transform="rotate(0,390,446)"/><path d="M 383 453v 14h 7a 7 7, 0, 0, 0, 0 -14" transform="rotate(90,390,460)"/><path d="M 397 131v 14h 7a 7 7, 0, 0, 0, 0 -14" transform="rotate(0,404,138)"/><path d="M 397 159v 14h 7a 7 7, 0, 0, 0, 0 -14" transform="rotate(0,404,166)"/><rect x="397" y="187" width="14" height="14" transform="rotate(0,404,194)"/><rect x="397" y="201" width="14" height="14" transform="rotate(0,404,208)"/><path d="M 397 215v 14h 14v -7a 7 7, 0, 0, 0, -7 -7" transform="rotate(90,404,222)"/><path d="M 397 257v 14h 14v -7a 7 7, 0, 0, 0, -7 -7" transform="rotate(0,404,264)"/><rect x="397" y="271" width="14" height="14" transform="rotate(0,404,278)"/><rect x="397" y="285" width="14" height="14" transform="rotate(0,404,292)"/><rect x="397" y="299" width="14" height="14" transform="rotate(0,404,306)"/><rect x="397" y="313" width="14" height="14" transform="rotate(0,404,320)"/><path d="M 397 327v 14h 14v -7a 7 7, 0, 0, 0, -7 -7" transform="rotate(180,404,334)"/><rect x="397" y="355" width="14" height="14" transform="rotate(0,404,362)"/><rect x="397" y="411" width="14" height="14" transform="rotate(0,404,418)"/><path d="M 397 467v 14h 7a 7 7, 0, 0, 0, 0 -14" transform="rotate(180,404,474)"/><rect x="411" y="187" width="14" height="14" transform="rotate(0,418,194)"/><path d="M 411 271v 14h 7a 7 7, 0, 0, 0, 0 -14" transform="rotate(0,418,278)"/><rect x="411" y="299" width="14" height="14" transform="rotate(0,418,306)"/><rect x="411" y="313" width="14" height="14" transform="rotate(0,418,320)"/><path d="M 411 327v 14h 14v -7a 7 7, 0, 0, 0, -7 -7" transform="rotate(90,418,334)"/><rect x="411" y="355" width="14" height="14" transform="rotate(0,418,362)"/><rect x="411" y="369" width="14" height="14" transform="rotate(0,418,376)"/><rect x="411" y="383" width="14" height="14" transform="rotate(0,418,390)"/><rect x="411" y="397" width="14" height="14" transform="rotate(0,418,404)"/><rect x="411" y="411" width="14" height="14" transform="rotate(0,418,418)"/><path d="M 411 425v 14h 7a 7 7, 0, 0, 0, 0 -14" transform="rotate(90,418,432)"/><path d="M 411 467v 14h 7a 7 7, 0, 0, 0, 0 -14" transform="rotate(0,418,474)"/><path d="M 425 131v 14h 7a 7 7, 0, 0, 0, 0 -14" transform="rotate(-90,432,138)"/><rect x="425" y="145" width="14" height="14" transform="rotate(0,432,152)"/><path d="M 425 159v 14h 7a 7 7, 0, 0, 0, 0 -14" transform="rotate(90,432,166)"/><path d="M 425 187v 14h 14v -7a 7 7, 0, 0, 0, -7 -7" transform="rotate(0,432,194)"/><rect x="425" y="201" width="14" height="14" transform="rotate(0,432,208)"/><rect x="425" y="215" width="14" height="14" transform="rotate(0,432,222)"/><rect x="425" y="229" width="14" height="14" transform="rotate(0,432,236)"/><path d="M 425 243v 14h 14v -7a 7 7, 0, 0, 0, -7 -7" transform="rotate(180,432,250)"/><path d="M 425 299v 14h 7a 7 7, 0, 0, 0, 0 -14" transform="rotate(0,432,306)"/><path d="M 425 341v 14h 14v -7a 7 7, 0, 0, 0, -7 -7" transform="rotate(-90,432,348)"/><rect x="425" y="355" width="14" height="14" transform="rotate(0,432,362)"/><path d="M 425 383v 14h 7a 7 7, 0, 0, 0, 0 -14" transform="rotate(0,432,390)"/><rect x="425" y="411" width="14" height="14" transform="rotate(0,432,418)"/><circle cx="432" cy="460" r="7" transform="rotate(0,432,460)"/><rect x="439" y="145" width="14" height="14" transform="rotate(0,446,152)"/><circle cx="446" cy="180" r="7" transform="rotate(0,446,180)"/><path d="M 439 201v 14h 14v -7a 7 7, 0, 0, 0, -7 -7" transform="rotate(0,446,208)"/><path d="M 439 215v 14h 14v -7a 7 7, 0, 0, 0, -7 -7" transform="rotate(90,446,222)"/><rect x="439" y="243" width="14" height="14" transform="rotate(0,446,250)"/><path d="M 439 257v 14h 7a 7 7, 0, 0, 0, 0 -14" transform="rotate(90,446,264)"/><path d="M 439 313v 14h 7a 7 7, 0, 0, 0, 0 -14" transform="rotate(180,446,320)"/><rect x="439" y="341" width="14" height="14" transform="rotate(0,446,348)"/><rect x="439" y="355" width="14" height="14" transform="rotate(0,446,362)"/><path d="M 439 369v 14h 14v -7a 7 7, 0, 0, 0, -7 -7" transform="rotate(180,446,376)"/><path d="M 439 411v 14h 14v -7a 7 7, 0, 0, 0, -7 -7" transform="rotate(0,446,418)"/><rect x="439" y="425" width="14" height="14" transform="rotate(0,446,432)"/><path d="M 439 439v 14h 7a 7 7, 0, 0, 0, 0 -14" transform="rotate(90,446,446)"/><circle cx="446" cy="474" r="7" transform="rotate(0,446,474)"/><path d="M 453 131v 14h 7a 7 7, 0, 0, 0, 0 -14" transform="rotate(-90,460,138)"/><rect x="453" y="145" width="14" height="14" transform="rotate(0,460,152)"/><path d="M 453 159v 14h 14v -7a 7 7, 0, 0, 0, -7 -7" transform="rotate(180,460,166)"/><path d="M 453 187v 14h 7a 7 7, 0, 0, 0, 0 -14" transform="rotate(180,460,194)"/><path d="M 453 243v 14h 7a 7 7, 0, 0, 0, 0 -14" transform="rotate(0,460,250)"/><path d="M 453 285v 14h 7a 7 7, 0, 0, 0, 0 -14" transform="rotate(180,460,292)"/><rect x="453" y="313" width="14" height="14" transform="rotate(0,460,320)"/><path d="M 453 341v 14h 14v -7a 7 7, 0, 0, 0, -7 -7" transform="rotate(0,460,348)"/><rect x="453" y="355" width="14" height="14" transform="rotate(0,460,362)"/><rect x="453" y="369" width="14" height="14" transform="rotate(0,460,376)"/><path d="M 453 383v 14h 7a 7 7, 0, 0, 0, 0 -14" transform="rotate(90,460,390)"/><path d="M 467 145v 14h 14v -7a 7 7, 0, 0, 0, -7 -7" transform="rotate(0,474,152)"/><path d="M 467 159v 14h 14v -7a 7 7, 0, 0, 0, -7 -7" transform="rotate(90,474,166)"/><path d="M 467 187v 14h 7a 7 7, 0, 0, 0, 0 -14" transform="rotate(0,474,194)"/><circle cx="474" cy="264" r="7" transform="rotate(0,474,264)"/><path d="M 467 285v 14h 7a 7 7, 0, 0, 0, 0 -14" transform="rotate(0,474,292)"/><path d="M 467 313v 14h 7a 7 7, 0, 0, 0, 0 -14" transform="rotate(0,474,320)"/><path d="M 467 355v 14h 14v -7a 7 7, 0, 0, 0, -7 -7" transform="rotate(0,474,362)"/><path d="M 467 369v 14h 14v -7a 7 7, 0, 0, 0, -7 -7" transform="rotate(90,474,376)"/><circle cx="474" cy="418" r="7" transform="rotate(0,474,418)"/><circle cx="474" cy="460" r="7" transform="rotate(0,474,460)"/><path clip-rule="evenodd" d="M 19 54v 28a 35 35, 0, 0, 0, 35 35h 28a 35 35, 0, 0, 0, 35 -35v -28a 35 35, 0, 0, 0, -35 -35h -28a 35 35, 0, 0, 0, -35 35M 54 33h 28a 21 21, 0, 0, 1, 21 21v 28a 21 21, 0, 0, 1, -21 21h -28a 21 21, 0, 0, 1, -21 -21v -28a 21 21, 0, 0, 1, 21 -21" transform="rotate(0,68,68)"/><circle cx="68" cy="68" r="21" transform="rotate(0,68,68)"/><path clip-rule="evenodd" d="M 383 54v 28a 35 35, 0, 0, 0, 35 35h 28a 35 35, 0, 0, 0, 35 -35v -28a 35 35, 0, 0, 0, -35 -35h -28a 35 35, 0, 0, 0, -35 35M 418 33h 28a 21 21, 0, 0, 1, 21 21v 28a 21 21, 0, 0, 1, -21 21h -28a 21 21, 0, 0, 1, -21 -21v -28a 21 21, 0, 0, 1, 21 -21" transform="rotate(90,432,68)"/><circle cx="432" cy="68" r="21" transform="rotate(90,432,68)"/><path clip-rule="evenodd" d="M 19 418v 28a 35 35, 0, 0, 0, 35 35h 28a 35 35, 0, 0, 0, 35 -35v -28a 35 35, 0, 0, 0, -35 -35h -28a 35 35, 0, 0, 0, -35 35M 54 397h 28a 21 21, 0, 0, 1, 21 21v 28a 21 21, 0, 0, 1, -21 21h -28a 21 21, 0, 0, 1, -21 -21v -28a 21 21, 0, 0, 1, 21 -21" transform="rotate(-90,68,432)"/><circle cx="68" cy="432" r="21" transform="rotate(-90,68,432)"/></clipPath></defs><rect x="0" y="0" height="500" width="500" clip-path="url('#clip-path-background-color')" fill="#fff"/><rect x="0" y="0" height="500" width="500" clip-path="url('#clip-path-dot-color')" fill="#000000"/></svg>